<?xml version="1.0" encoding="UTF-8" standalone="no"?>
<!DOCTYPE svg PUBLIC "-//W3C//DTD SVG 1.1//EN"
 "http://www.w3.org/Graphics/SVG/1.1/DTD/svg11.dtd">
<!-- Generated by graphviz version 15.1.0 (20260618.0150)
 -->
<!-- Title: zarr_flow Pages: 1 -->
<svg width="137pt" height="371pt"
 viewBox="0.00 0.00 137.00 371.00" xmlns="http://www.w3.org/2000/svg" xmlns:xlink="http://www.w3.org/1999/xlink">
<g id="graph0" class="graph" transform="scale(1 1) rotate(0) translate(4 367.12)">
<title>zarr_flow</title>
<polygon fill="#111111" stroke="none" points="-4,4 -4,-367.12 132.5,-367.12 132.5,4 -4,4"/>
<!-- sim -->
<g id="node1" class="node">
<title>sim</title>
<path fill="#1a1a1a" stroke="#76b900" d="M100.75,-363.12C100.75,-363.12 27.75,-363.12 27.75,-363.12 21.75,-363.12 15.75,-357.12 15.75,-351.12 15.75,-351.12 15.75,-339.12 15.75,-339.12 15.75,-333.12 21.75,-327.12 27.75,-327.12 27.75,-327.12 100.75,-327.12 100.75,-327.12 106.75,-327.12 112.75,-333.12 112.75,-339.12 112.75,-339.12 112.75,-351.12 112.75,-351.12 112.75,-357.12 106.75,-363.12 100.75,-363.12"/>
<text xml:space="preserve" text-anchor="middle" x="64.25" y="-348.18" font-family="Arial" font-size="11.00" fill="#eeeeee">NVTLangevin</text>
<text xml:space="preserve" text-anchor="middle" x="64.25" y="-334.68" font-family="Arial" font-size="11.00" fill="#eeeeee">+ SnapshotHook</text>
</g>
<!-- zarr -->
<g id="node2" class="node">
<title>zarr</title>
<path fill="#f9e2ae" stroke="#76b900" d="M116.5,-262.75C116.5,-265.16 93.08,-267.12 64.25,-267.12 35.42,-267.12 12,-265.16 12,-262.75 12,-262.75 12,-223.38 12,-223.38 12,-220.96 35.42,-219 64.25,-219 93.08,-219 116.5,-220.96 116.5,-223.38 116.5,-223.38 116.5,-262.75 116.5,-262.75"/>
<path fill="none" stroke="#76b900" d="M116.5,-262.75C116.5,-260.34 93.08,-258.38 64.25,-258.38 35.42,-258.38 12,-260.34 12,-262.75"/>
<text xml:space="preserve" text-anchor="middle" x="64.25" y="-246.11" font-family="Arial" font-size="11.00" fill="#111111">ZarrData</text>
<text xml:space="preserve" text-anchor="middle" x="64.25" y="-232.61" font-family="Arial" font-size="11.00" fill="#111111">(DataSink on disk)</text>
</g>
<!-- sim&#45;&gt;zarr -->
<g id="edge1" class="edge">
<title>sim&#45;&gt;zarr</title>
<path fill="none" stroke="#999999" stroke-width="2" d="M64.25,-326.7C64.25,-313.45 64.25,-294.8 64.25,-278.57"/>
<polygon fill="#999999" stroke="#999999" stroke-width="2" points="67.75,-280.32 64.25,-270.32 60.75,-280.32 67.75,-280.32"/>
<text xml:space="preserve" text-anchor="middle" x="90.88" y="-299.62" font-family="Arial" font-size="10.00" fill="#eeeeee">writes every</text>
<text xml:space="preserve" text-anchor="middle" x="90.88" y="-287.62" font-family="Arial" font-size="10.00" fill="#eeeeee">N steps</text>
</g>
<!-- reader -->
<g id="node3" class="node">
<title>reader</title>
<path fill="#1a1a1a" stroke="#76b900" d="M116.5,-182C116.5,-182 12,-182 12,-182 6,-182 0,-176 0,-170 0,-170 0,-158 0,-158 0,-152 6,-146 12,-146 12,-146 116.5,-146 116.5,-146 122.5,-146 128.5,-152 128.5,-158 128.5,-158 128.5,-170 128.5,-170 128.5,-176 122.5,-182 116.5,-182"/>
<text xml:space="preserve" text-anchor="middle" x="64.25" y="-160.3" font-family="Arial" font-size="11.00" fill="#eeeeee">AtomicDataZarrReader</text>
</g>
<!-- zarr&#45;&gt;reader -->
<g id="edge2" class="edge">
<title>zarr&#45;&gt;reader</title>
<path fill="none" stroke="#999999" stroke-width="2" d="M64.25,-218.52C64.25,-210.67 64.25,-201.84 64.25,-193.64"/>
<polygon fill="#999999" stroke="#999999" stroke-width="2" points="67.75,-195.31 64.25,-185.31 60.75,-195.31 67.75,-195.31"/>
</g>
<!-- ds -->
<g id="node4" class="node">
<title>ds</title>
<path fill="#1a1a1a" stroke="#76b900" d="M79.25,-109C79.25,-109 49.25,-109 49.25,-109 43.25,-109 37.25,-103 37.25,-97 37.25,-97 37.25,-85 37.25,-85 37.25,-79 43.25,-73 49.25,-73 49.25,-73 79.25,-73 79.25,-73 85.25,-73 91.25,-79 91.25,-85 91.25,-85 91.25,-97 91.25,-97 91.25,-103 85.25,-109 79.25,-109"/>
<text xml:space="preserve" text-anchor="middle" x="64.25" y="-87.3" font-family="Arial" font-size="11.00" fill="#eeeeee">Dataset</text>
</g>
<!-- reader&#45;&gt;ds -->
<g id="edge3" class="edge">
<title>reader&#45;&gt;ds</title>
<path fill="none" stroke="#999999" stroke-width="2" d="M64.25,-145.81C64.25,-138.23 64.25,-129.1 64.25,-120.54"/>
<polygon fill="#999999" stroke="#999999" stroke-width="2" points="67.75,-122.06 64.25,-112.06 60.75,-122.06 67.75,-122.06"/>
</g>
<!-- dl -->
<g id="node5" class="node">
<title>dl</title>
<path fill="#eeeeee" stroke="#76b900" d="M111.25,-36C111.25,-36 17.25,-36 17.25,-36 11.25,-36 5.25,-30 5.25,-24 5.25,-24 5.25,-12 5.25,-12 5.25,-6 11.25,0 17.25,0 17.25,0 111.25,0 111.25,0 117.25,0 123.25,-6 123.25,-12 123.25,-12 123.25,-24 123.25,-24 123.25,-30 117.25,-36 111.25,-36"/>
<text xml:space="preserve" text-anchor="middle" x="64.25" y="-21.05" font-family="Arial" font-size="11.00" fill="#111111">DataLoader</text>
<text xml:space="preserve" text-anchor="middle" x="64.25" y="-7.55" font-family="Arial" font-size="11.00" fill="#111111">(yields Batch objects)</text>
</g>
<!-- ds&#45;&gt;dl -->
<g id="edge4" class="edge">
<title>ds&#45;&gt;dl</title>
<path fill="none" stroke="#999999" stroke-width="2" d="M64.25,-72.81C64.25,-65.23 64.25,-56.1 64.25,-47.54"/>
<polygon fill="#999999" stroke="#999999" stroke-width="2" points="67.75,-49.06 64.25,-39.06 60.75,-49.06 67.75,-49.06"/>
</g>
</g>
</svg>
