<?xml version="1.0" encoding="UTF-8" standalone="no"?>
<!DOCTYPE svg PUBLIC "-//W3C//DTD SVG 1.1//EN"
 "http://www.w3.org/Graphics/SVG/1.1/DTD/svg11.dtd">
<!-- Generated by graphviz version 15.1.0 (20260618.0150)
 -->
<!-- Title: distributed_pipeline Pages: 1 -->
<svg width="268pt" height="44pt"
 viewBox="0.00 0.00 268.00 44.00" xmlns="http://www.w3.org/2000/svg" xmlns:xlink="http://www.w3.org/1999/xlink">
<g id="graph0" class="graph" transform="scale(1 1) rotate(0) translate(4 40)">
<title>distributed_pipeline</title>
<polygon fill="#111111" stroke="none" points="-4,4 -4,-40 264,-40 264,4 -4,4"/>
<!-- rank0 -->
<g id="node1" class="node">
<title>rank0</title>
<path fill="#1a1a1a" stroke="#76b900" d="M70,-36C70,-36 12,-36 12,-36 6,-36 0,-30 0,-24 0,-24 0,-12 0,-12 0,-6 6,0 12,0 12,0 70,0 70,0 76,0 82,-6 82,-12 82,-12 82,-24 82,-24 82,-30 76,-36 70,-36"/>
<text xml:space="preserve" text-anchor="middle" x="41" y="-21.05" font-family="Arial" font-size="11.00" fill="#eeeeee">Rank 0: FIRE</text>
<text xml:space="preserve" text-anchor="middle" x="41" y="-7.55" font-family="Arial" font-size="11.00" fill="#eeeeee">(upstream)</text>
</g>
<!-- rank1 -->
<g id="node2" class="node">
<title>rank1</title>
<path fill="#1a1a1a" stroke="#76b900" d="M248,-36C248,-36 157.75,-36 157.75,-36 151.75,-36 145.75,-30 145.75,-24 145.75,-24 145.75,-12 145.75,-12 145.75,-6 151.75,0 157.75,0 157.75,0 248,0 248,0 254,0 260,-6 260,-12 260,-12 260,-24 260,-24 260,-30 254,-36 248,-36"/>
<text xml:space="preserve" text-anchor="middle" x="202.88" y="-21.05" font-family="Arial" font-size="11.00" fill="#eeeeee">Rank 1: Langevin</text>
<text xml:space="preserve" text-anchor="middle" x="202.88" y="-7.55" font-family="Arial" font-size="11.00" fill="#eeeeee">(downstream + sink)</text>
</g>
<!-- rank0&#45;&gt;rank1 -->
<g id="edge1" class="edge">
<title>rank0&#45;&gt;rank1</title>
<path fill="none" stroke="#999999" d="M82.34,-18C98.05,-18 116.49,-18 134.11,-18"/>
<polygon fill="#999999" stroke="#999999" points="134.03,-21.5 144.03,-18 134.03,-14.5 134.03,-21.5"/>
<text xml:space="preserve" text-anchor="middle" x="113.88" y="-20.5" font-family="Arial" font-size="10.00" fill="#eeeeee">NCCL</text>
</g>
</g>
</svg>
